<svg width="20" height="20" viewBox="0 0 20 20" fill="none" xmlns="http://www.w3.org/2000/svg">
<path d="M10 0C15.5225 0 20 4.4775 20 10C20 15.5225 15.5225 20 10 20C4.4775 20 0 15.5225 0 10C0 4.4775 4.4775 0 10 0ZM10 5C9.84897 5.00001 9.70305 5.0547 9.58922 5.15397C9.4754 5.25324 9.40137 5.39037 9.38083 5.54L9.375 5.625V9.375H5.625C5.46665 9.37505 5.31422 9.4352 5.19851 9.54331C5.0828 9.65142 5.01244 9.79942 5.00165 9.9574C4.99085 10.1154 5.04043 10.2716 5.14036 10.3944C5.24029 10.5173 5.38312 10.5976 5.54 10.6192L5.625 10.625H9.375V14.375C9.37505 14.5334 9.4352 14.6858 9.54331 14.8015C9.65142 14.9172 9.79942 14.9876 9.9574 14.9984C10.1154 15.0091 10.2716 14.9596 10.3944 14.8596C10.5173 14.7597 10.5976 14.6169 10.6192 14.46L10.625 14.375V10.625H14.375C14.5334 10.625 14.6858 10.5648 14.8015 10.4567C14.9172 10.3486 14.9876 10.2006 14.9984 10.0426C15.0091 9.88461 14.9596 9.72842 14.8596 9.60558C14.7597 9.48275 14.6169 9.40242 14.46 9.38083L14.375 9.375H10.625V5.625C10.625 5.45924 10.5592 5.30027 10.4419 5.18306C10.3247 5.06585 10.1658 5 10 5Z" fill="white"/>
</svg>
