<svg width="20" height="20" viewBox="0 0 20 20" fill="none" xmlns="http://www.w3.org/2000/svg">
<path d="M9.73536 8.56378V11.8344H15.259C15.0338 13.2382 13.5887 15.95 9.73536 15.95C6.41438 15.95 3.70126 13.2538 3.70126 9.92712C3.70126 6.60048 6.41377 3.90422 9.73536 3.90422C11.6271 3.90422 12.8951 4.69025 13.6173 5.37371L16.2574 2.87963C14.5623 1.32962 12.3657 0.385544 9.73536 0.385544C4.35414 0.385544 0 4.6503 0 9.92771C0 15.2051 4.35414 19.4699 9.73536 19.4699C15.3539 19.4699 19.0843 15.5993 19.0843 10.1454C19.0843 9.518 19.0144 9.03969 18.9292 8.56437L9.73536 8.56378Z" fill="white"/>
</svg>
