<svg width="33" height="30" viewBox="0 0 33 30" fill="none" xmlns="http://www.w3.org/2000/svg">
<path d="M18.8571 0C15.1062 0 11.5089 1.58035 8.85663 4.3934C6.20433 7.20644 4.71429 11.0217 4.71429 15H0L6.11286 21.4833L6.22286 21.7167L12.5714 15H7.85714C7.85714 8.55 12.7757 3.33333 18.8571 3.33333C24.9386 3.33333 29.8571 8.55 29.8571 15C29.8571 21.45 24.9386 26.6667 18.8571 26.6667C15.8243 26.6667 13.0743 25.35 11.0943 23.2333L8.86286 25.6C10.1725 26.9967 11.7299 28.1046 13.4452 28.8597C15.1606 29.6149 16.9999 30.0024 18.8571 30C22.6081 30 26.2054 28.4196 28.8577 25.6066C31.51 22.7935 33 18.9782 33 15C33 11.0217 31.51 7.20644 28.8577 4.3934C26.2054 1.58035 22.6081 5.92805e-08 18.8571 0ZM17.2857 8.33333V16.6667L23.9643 20.8667L25.1743 18.7333L19.6429 15.25V8.33333H17.2857Z" fill="#37B662"/>
</svg>
