<svg width="30" height="30" viewBox="0 0 30 30" fill="none" xmlns="http://www.w3.org/2000/svg">
<path d="M0.549375 11.7716L13.6744 0.472597C14.026 0.169993 14.5028 0 15 0C15.4972 0 15.974 0.169993 16.3256 0.472597L29.4506 11.7716C29.8023 12.0742 29.9999 12.4847 30 12.9127V28.3859C30 28.814 29.8025 29.2245 29.4508 29.5272C29.0992 29.8299 28.6223 30 28.125 30H18.75V18.701H11.25V30H1.875C1.37772 30 0.900806 29.8299 0.549175 29.5272C0.197544 29.2245 0 28.814 0 28.3859V12.9127C0.000106195 12.4847 0.19772 12.0742 0.549375 11.7716Z" fill="#37B662"/>
</svg>
