<svg width="48" height="58" viewBox="0 0 48 58" fill="none" xmlns="http://www.w3.org/2000/svg">
<g filter="url(#filter0_d_4_121)">
<path d="M24 41.9998V37.9997C25.7183 37.8661 27.329 37.191 28.5486 36.0934C29.7681 34.9958 30.5182 33.5461 30.6667 31.9996H35.1111C34.9675 34.6101 33.7507 37.0792 31.6973 38.9273C29.6439 40.7754 26.9004 41.8705 24 41.9998Z" fill="white"/>
<path d="M24 50C18.6977 49.9942 13.6143 48.0959 9.86501 44.7214C6.11568 41.3469 4.00647 36.7719 4 31.9997C4.1196 28.491 5.26474 25.0728 7.32 22.0895L22.1178 0.873052C22.3315 0.603066 22.6138 0.382967 22.9413 0.231101C23.2687 0.079235 23.6317 0 24 0C24.3683 0 24.7313 0.079235 25.0587 0.231101C25.3862 0.382967 25.6685 0.603066 25.8822 0.873052L40.6156 21.9855C42.7053 24.9965 43.8729 28.4514 44 31.9997C43.9935 36.7719 41.8843 41.3469 38.135 44.7214C34.3857 48.0959 29.3023 49.9942 24 50ZM24 5.69515L11.1511 24.1115C9.49555 26.4816 8.56207 29.2021 8.44444 31.9997C8.44444 35.7128 10.0833 39.2738 13.0006 41.8993C15.9178 44.5249 19.8744 45.9999 24 45.9999C28.1256 45.9999 32.0822 44.5249 34.9994 41.8993C37.9167 39.2738 39.5556 35.7128 39.5556 31.9997C39.4288 29.163 38.4721 26.4067 36.7822 24.0095L24 5.69515Z" fill="white"/>
</g>
<defs>
<filter id="filter0_d_4_121" x="0" y="0" width="48" height="58" filterUnits="userSpaceOnUse" color-interpolation-filters="sRGB">
<feFlood flood-opacity="0" result="BackgroundImageFix"/>
<feColorMatrix in="SourceAlpha" type="matrix" values="0 0 0 0 0 0 0 0 0 0 0 0 0 0 0 0 0 0 127 0" result="hardAlpha"/>
<feOffset dy="4"/>
<feGaussianBlur stdDeviation="2"/>
<feComposite in2="hardAlpha" operator="out"/>
<feColorMatrix type="matrix" values="0 0 0 0 0 0 0 0 0 0 0 0 0 0 0 0 0 0 0.25 0"/>
<feBlend mode="normal" in2="BackgroundImageFix" result="effect1_dropShadow_4_121"/>
<feBlend mode="normal" in="SourceGraphic" in2="effect1_dropShadow_4_121" result="shape"/>
</filter>
</defs>
</svg>
