<svg width="58" height="58" viewBox="0 0 58 58" fill="none" xmlns="http://www.w3.org/2000/svg">
<g filter="url(#filter0_d_4_120)">
<path d="M23.6429 27.2456V7.14169C23.6429 5.2476 22.8903 3.43108 21.5508 2.09175C20.2112 0.752426 18.3944 0 16.5 0C14.6056 0 12.7888 0.752426 11.4492 2.09175C10.1097 3.43108 9.35714 5.2476 9.35714 7.14169V27.2456C7.17324 28.766 5.53165 30.9436 4.67129 33.4615C3.81093 35.9793 3.77672 38.706 4.57363 41.2446C5.37053 43.7833 6.95697 46.0014 9.10203 47.5761C11.2471 49.1508 13.8388 50 16.5 50C19.1612 50 21.7529 49.1508 23.898 47.5761C26.043 46.0014 27.6295 43.7833 28.4264 41.2446C29.2233 38.706 29.1891 35.9793 28.3287 33.4615C27.4684 30.9436 25.8268 28.766 23.6429 27.2456ZM16.5 3.57085C17.4472 3.57085 18.3556 3.94706 19.0254 4.61672C19.6952 5.28639 20.0714 6.19465 20.0714 7.14169V19.6397H12.9286V7.14169C12.9286 6.19465 13.3048 5.28639 13.9746 4.61672C14.6444 3.94706 15.5528 3.57085 16.5 3.57085ZM16.5 46.421C14.5346 46.4209 12.6241 45.7724 11.0649 44.5761C9.50564 43.3798 8.38476 41.7026 7.87606 39.8044C7.36737 37.9063 7.49929 35.8934 8.25138 34.0779C9.00346 32.2623 10.3337 30.7456 12.0357 29.763L12.9286 29.2631V23.2105H20.0714V29.2631L20.9643 29.763C22.6663 30.7456 23.9965 32.2623 24.7486 34.0779C25.5007 35.8934 25.6326 37.9063 25.1239 39.8044C24.6152 41.7026 23.4944 43.3798 21.9351 44.5761C20.3759 45.7724 18.4654 46.4209 16.5 46.421ZM36.1429 3.57085H54V7.14169H36.1429V3.57085ZM36.1429 14.2834H48.6429V17.8542H36.1429V14.2834ZM36.1429 24.9959H54V28.5668H36.1429V24.9959ZM36.1429 35.7085H48.6429V39.2793H36.1429V35.7085Z" fill="white"/>
</g>
<defs>
<filter id="filter0_d_4_120" x="0" y="0" width="58" height="58" filterUnits="userSpaceOnUse" color-interpolation-filters="sRGB">
<feFlood flood-opacity="0" result="BackgroundImageFix"/>
<feColorMatrix in="SourceAlpha" type="matrix" values="0 0 0 0 0 0 0 0 0 0 0 0 0 0 0 0 0 0 127 0" result="hardAlpha"/>
<feOffset dy="4"/>
<feGaussianBlur stdDeviation="2"/>
<feComposite in2="hardAlpha" operator="out"/>
<feColorMatrix type="matrix" values="0 0 0 0 0 0 0 0 0 0 0 0 0 0 0 0 0 0 0.25 0"/>
<feBlend mode="normal" in2="BackgroundImageFix" result="effect1_dropShadow_4_120"/>
<feBlend mode="normal" in="SourceGraphic" in2="effect1_dropShadow_4_120" result="shape"/>
</filter>
</defs>
</svg>
